<svg width="40" height="40" viewBox="0 0 40 40" fill="#000" xmlns="http://www.w3.org/2000/svg">
<g clip-path="url(#clip0_19_78)">
<path d="M11.5625 7.50623C12.735 7.50623 13.795 7.60373 14.7663 7.81873C15.7238 8.03373 16.55 8.36623 17.24 8.83498C17.9238 9.30373 18.4575 9.91623 18.8413 10.7037C19.2125 11.485 19.4075 12.455 19.4075 13.5875C19.4075 14.8175 19.1213 15.8537 18.5613 16.6862C17.995 17.52 17.1675 18.1837 16.055 18.7175C17.565 19.1537 18.685 19.915 19.4275 21.0025C20.1763 22.1025 20.5338 23.4175 20.5338 24.935C20.5338 26.185 20.3188 27.2525 19.85 28.1512C19.3875 29.0687 18.7363 29.8175 17.9163 30.4037C17.115 30.9837 16.165 31.4 15.1363 31.68C14.12 31.9537 13.0463 32.1037 11.9525 32.1037H-0.0012207V7.51998H11.5613L11.5625 7.50623ZM28.2363 27.7737C28.965 28.49 30.02 28.8475 31.3938 28.8475C32.3763 28.8475 33.2238 28.6 33.9388 28.0987C34.6488 27.6175 35.0713 27.0825 35.2413 26.5362H39.5513C38.8813 28.665 37.8063 30.2012 36.3875 31.12C34.9688 32.0512 33.25 32.5 31.2575 32.5C29.8575 32.5 28.6138 32.285 27.4688 31.8362C26.3488 31.3875 25.3988 30.7487 24.6038 29.935C23.8288 29.1212 23.23 28.1375 22.8063 26.9862C22.3825 25.835 22.1813 24.5712 22.1813 23.2037C22.1813 21.8625 22.4088 20.6387 22.8588 19.4862C23.3075 18.3212 23.9263 17.3512 24.7213 16.505C25.5475 15.6525 26.4925 15.0137 27.6188 14.5125C28.7388 14.0112 29.95 13.79 31.3163 13.79C32.8338 13.79 34.135 14.0637 35.2813 14.6625C36.4013 15.2287 37.3188 16.03 38.0488 16.9937C38.785 17.97 39.2988 19.0962 39.6175 20.3662C39.9363 21.6162 40.0338 22.9312 39.9688 24.3312H27.15C27.15 25.7312 27.6188 27.0525 28.335 27.7687L28.1988 27.8212L28.2363 27.7737ZM11.165 27.8575C11.6925 27.8575 12.2 27.805 12.675 27.7012C13.1563 27.6037 13.5863 27.4275 13.945 27.2C14.2963 26.9787 14.5963 26.6525 14.8175 26.23C15.0325 25.8325 15.13 25.28 15.13 24.6287C15.13 23.3787 14.765 22.48 14.0625 21.9337C13.3463 21.4 12.415 21.1325 11.25 21.1325H5.39753V27.8837H11.1663V27.8312L11.165 27.8575ZM33.8475 18.4437C33.255 17.7987 32.2788 17.4537 31.08 17.4537C30.305 17.4537 29.6613 17.5775 29.14 17.8512C28.6388 18.0987 28.2225 18.4375 27.9025 18.8337C27.59 19.2312 27.375 19.635 27.2513 20.0837C27.1275 20.52 27.05 20.9175 27.03 21.2687H34.9663C34.8488 20.0187 34.4125 19.1012 33.8338 18.45V18.47L33.8475 18.4437ZM10.8663 17.415C11.8238 17.415 12.6175 17.1937 13.2425 16.7312C13.8675 16.2825 14.1675 15.5262 14.1675 14.4987C14.1675 13.9262 14.05 13.4575 13.8675 13.0925C13.6463 12.7212 13.3663 12.4412 13.0338 12.24C12.6825 12.0312 12.2788 11.8887 11.8288 11.81C11.38 11.7187 10.8975 11.6862 10.4288 11.6862H5.38378V17.415H10.8663ZM26.0288 9.15373H35.9763V11.575H26.0288V9.13373V9.15373Z" fill="#000"/>
</g>
<defs>
<clipPath id="clip0_19_78">
<rect width="40" height="40" fill="white"/>
</clipPath>
</defs>
</svg>
