<svg width="40" height="40" viewBox="0 0 40 40" fill="#000" xmlns="http://www.w3.org/2000/svg">
<g clip-path="url(#clip0_19_76)">
<path d="M20 0.494963C8.95125 0.494963 0 9.45371 0 20.495C0 29.3362 5.73 36.83 13.6713 39.4737C14.675 39.6625 15.0375 39.0437 15.0375 38.5087C15.0375 38.0337 15.0263 36.7775 15.0188 35.11C9.4525 36.315 8.28 32.4212 8.28 32.4212C7.36875 30.1162 6.05375 29.4975 6.05375 29.4975C4.24375 28.2612 6.1975 28.2875 6.1975 28.2875C8.2025 28.4237 9.2575 30.3437 9.2575 30.3437C11.0413 33.4037 13.9375 32.5187 15.0838 32.0037C15.2588 30.715 15.78 29.8287 16.3475 29.335C11.9075 28.8337 7.23875 27.115 7.23875 19.4512C7.23875 17.2625 8.01375 15.48 9.295 14.08C9.07375 13.5787 8.39625 11.5412 9.47125 8.78621C9.47125 8.78621 11.145 8.25246 14.9713 10.8375C16.5725 10.3937 18.2725 10.1725 19.9713 10.1612C21.6713 10.1725 23.37 10.395 24.9712 10.8375C28.775 8.25246 30.4475 8.78621 30.4475 8.78621C31.5212 11.5412 30.8437 13.5775 30.6487 14.08C31.9175 15.48 32.6925 17.2637 32.6925 19.4512C32.6925 27.1325 28.0175 28.8262 23.5725 29.315C24.2675 29.9137 24.9187 31.145 24.9187 33.0137C24.9187 35.6887 24.8938 37.8437 24.8938 38.495C24.8938 39.015 25.2437 39.64 26.2737 39.4387C34.2737 36.8225 39.9975 29.3225 39.9975 20.4937C39.9975 9.45246 31.0462 0.493713 19.9975 0.493713L20 0.494963Z" fill="#000"/>
</g>
<defs>
<clipPath id="clip0_19_76">
<rect width="40" height="40" fill="white"/>
</clipPath>
</defs>
</svg>
