<svg width="36" height="36" viewBox="0 0 36 36" fill="#000" xmlns="http://www.w3.org/2000/svg">
<path d="M18 34.875C22.9059 34.875 26.9118 27.6504 26.9118 17.9649C26.9118 8.22657 22.9236 1.00195 18 1.00195C13.0765 1.00195 9.08826 8.22657 9.08826 17.9649C9.08826 27.6504 13.0941 34.875 18 34.875ZM18 3.12891C21.4589 3.12891 24.5471 9.98438 24.5471 17.9649C24.5471 25.8047 21.4589 32.7304 18 32.7304C14.5412 32.7304 11.453 25.8047 11.453 17.9649C11.453 9.98438 14.5412 3.12891 18 3.12891ZM16.853 1.24805V34.541H19.1648V1.24805H16.853ZM18 24.5391C12.5647 24.5391 7.74707 25.9629 5.27649 28.2305L7.05884 29.6895C9.38826 27.8438 13.1824 26.8418 18 26.8418C22.8176 26.8418 26.6119 27.8438 28.9413 29.6895L30.7235 28.2305C28.253 25.9629 23.4353 24.5391 18 24.5391ZM34.2883 16.7696H1.71177V19.0722H34.2883V16.7696ZM18 11.4082C23.4353 11.4082 28.253 9.98438 30.7235 7.7168L28.9413 6.25782C26.6119 8.08593 22.8176 9.10547 18 9.10547C13.1824 9.10547 9.38826 8.08593 7.05884 6.25782L5.27649 7.7168C7.74707 9.98438 12.5647 11.4082 18 11.4082ZM18 35.8593C27.8471 35.8593 36 27.7208 36 17.9297C36 8.12109 27.8295 0 17.9824 0C8.15295 0 0 8.12109 0 17.9297C0 27.7208 8.1706 35.8593 18 35.8593ZM18 33.4688C9.47649 33.4688 2.40001 26.42 2.40001 17.9297C2.40001 9.43946 9.45884 2.39063 17.9824 2.39063C26.506 2.39063 33.6001 9.43946 33.6001 17.9297C33.6001 26.42 26.5236 33.4688 18 33.4688Z" fill="#000"/>
</svg>
