<?xml version="1.0" standalone="no"?>
<!DOCTYPE svg PUBLIC "-//W3C//DTD SVG 20010904//EN"
 "http://www.w3.org/TR/2001/REC-SVG-20010904/DTD/svg10.dtd">
<svg version="1.0" xmlns="http://www.w3.org/2000/svg"
 width="2480.000000pt" height="2200.000000pt" viewBox="0 0 2480.000000 2000.000000"
 preserveAspectRatio="xMidYMid meet">

<g transform="translate(0.000000,2850.000000) scale(0.100000,-0.100000)"
fill="#BA7F3B" stroke="none">
<path d="M18670 29096 c-148 -18 -227 -31 -375 -60 -66 -14 -178 -32 -250 -42
-161 -21 -361 -72 -535 -136 -30 -11 -129 -46 -220 -78 -382 -134 -588 -220
-775 -323 -610 -335 -1305 -816 -1910 -1322 -264 -221 -357 -300 -464 -395
-53 -47 -132 -116 -176 -155 -264 -232 -1011 -964 -1353 -1325 -174 -184 -613
-668 -790 -872 -51 -58 -99 -109 -107 -111 -7 -3 -56 -57 -108 -119 -51 -62
-127 -149 -169 -193 -41 -44 -93 -105 -116 -135 -22 -30 -63 -80 -91 -110
l-50 -55 -1 1156 c0 636 -3 1365 -7 1621 l-6 466 -129 117 c-71 64 -133 114
-136 110 -4 -4 -9 -855 -11 -1892 l-3 -1885 -31 -36 c-17 -21 -75 -84 -127
-142 -53 -58 -130 -144 -171 -191 -70 -81 -516 -570 -679 -744 -154 -165 -198
-214 -345 -381 -679 -773 -1271 -1540 -2057 -2664 -397 -569 -871 -1302 -1291
-1997 -166 -275 -237 -396 -472 -803 -101 -176 -325 -579 -325 -586 0 -3 -17
-36 -38 -72 -159 -275 -608 -1183 -800 -1617 -81 -185 -220 -522 -273 -665
l-24 -65 -7 365 c-12 633 -38 1852 -53 2475 -22 895 -43 1818 -65 2885 -11
525 -24 1160 -30 1410 -16 738 -39 1800 -55 2635 -8 429 -20 974 -25 1210 -15
681 -30 1469 -34 1865 -4 392 -11 470 -57 710 -123 630 -455 1105 -896 1281
-295 119 -672 87 -993 -83 -634 -336 -1152 -1146 -1339 -2093 -57 -289 -66
-391 -66 -735 1 -276 4 -333 23 -459 53 -336 164 -666 284 -845 39 -58 63 -72
56 -33 -3 15 0 28 7 31 8 3 14 75 18 258 26 1045 296 1999 710 2507 88 108
181 195 273 256 149 100 262 138 419 138 221 1 421 -95 626 -302 173 -177 235
-286 305 -541 l36 -135 8 -312 c4 -172 11 -768 15 -1325 3 -557 13 -1791 21
-2743 8 -951 18 -2274 24 -2940 5 -665 12 -1372 15 -1570 3 -198 10 -866 16
-1485 15 -1659 17 -1864 29 -2680 14 -1069 35 -3469 34 -3980 0 -239 -6 -547
-12 -685 -25 -513 -33 -815 -22 -835 13 -24 33 -25 54 -4 12 11 16 36 16 92 0
97 22 299 54 512 14 91 33 210 41 265 8 55 45 246 81 425 246 1223 707 2645
1382 4270 892 2147 2191 4533 3426 6293 61 87 118 168 126 180 75 111 518 709
685 927 186 241 475 594 674 825 178 207 526 591 620 686 25 25 81 83 125 127
43 45 80 82 82 82 2 0 4 -343 4 -763 0 -419 2 -773 5 -786 2 -13 5 -1050 7
-2303 1 -1796 4 -2283 14 -2296 12 -16 15 -16 46 0 21 12 61 19 113 20 l80 3
7 2310 c3 1271 8 2731 10 3246 l3 936 75 99 c74 98 186 243 247 319 18 22 96
121 175 220 704 890 1594 1846 2465 2647 216 198 351 318 358 318 3 0 -5 -24
-16 -52 -81 -201 -163 -493 -198 -708 -35 -212 -44 -350 -38 -585 8 -328 51
-578 152 -880 330 -991 1139 -1767 2275 -2178 196 -71 630 -191 1060 -294 80
-19 163 -38 185 -44 22 -5 137 -23 255 -39 285 -40 387 -60 663 -130 914 -231
1709 -631 2432 -1224 517 -424 990 -970 1334 -1540 428 -708 717 -1520 835
-2346 76 -529 85 -1124 25 -1643 -190 -1658 -1014 -3174 -2314 -4256 -658
-549 -1458 -983 -2260 -1226 -717 -217 -1410 -310 -2130 -284 -237 9 -264 11
-515 40 -1636 190 -3130 1020 -4151 2309 -384 485 -702 1047 -949 1675 -24 61
-50 117 -58 125 -13 13 -14 10 -9 -30 3 -25 3 -38 0 -30 -18 48 -64 65 -83 30
-11 -20 -1 -70 57 -275 246 -885 689 -1735 1231 -2365 458 -532 959 -957 1537
-1302 197 -118 596 -316 815 -405 593 -241 1156 -380 1824 -449 206 -21 783
-30 1028 -15 1199 72 2384 469 3428 1149 1155 751 2118 1874 2689 3134 341
753 531 1472 618 2333 25 255 25 952 0 1205 -88 866 -299 1605 -671 2348 -485
968 -1244 1803 -2181 2399 -450 286 -972 528 -1479 682 -261 80 -393 112 -688
166 -106 19 -213 39 -238 45 -25 5 -126 24 -225 41 -99 17 -218 40 -265 51
-47 10 -159 35 -249 53 -573 120 -1217 400 -1699 739 -369 260 -730 611 -912
887 -117 177 -251 386 -264 410 -7 13 -27 51 -45 84 -114 210 -240 542 -300
785 -75 311 -75 313 -76 590 0 223 3 271 23 383 110 608 415 1170 916 1685
224 229 417 391 654 549 45 30 85 61 90 68 20 35 396 257 647 383 510 254
1121 467 1460 508 183 22 479 29 635 15 245 -22 499 -64 645 -107 28 -8 79
-19 115 -25 258 -40 749 -244 1048 -435 29 -19 54 -34 57 -34 2 0 37 -21 77
-47 68 -43 160 -118 303 -245 l59 -53 -44 65 c-58 84 -249 276 -370 372 -411
327 -937 566 -1486 677 -331 67 -826 97 -1084 67z m2581 -822 c12 -16 10 -16
-18 1 -18 11 -33 23 -33 28 0 11 34 -8 51 -29z"/>
</g>
</svg>
