<svg width="40" height="40" viewBox="0 0 40 40" fill="#000" xmlns="http://www.w3.org/2000/svg">
<path d="M10.335 35H3.07875V11.6325H10.335V35ZM6.7025 8.445C4.3825 8.445 2.5 6.5225 2.5 4.2025C2.5 1.8825 4.38125 0 6.7025 0C9.02375 0 10.905 1.88125 10.905 4.2025C10.905 6.5225 9.0225 8.445 6.7025 8.445ZM37.4925 35H30.2525V23.625C30.2525 20.9137 30.1975 17.4375 26.48 17.4375C22.7075 17.4375 22.1287 20.3825 22.1287 23.43V35H14.88V11.6325H21.8387V14.82H21.94C22.9087 12.9837 25.275 11.0462 28.805 11.0462C36.1487 11.0462 37.4987 15.8825 37.4987 22.1638V35H37.4925Z" fill="#000"/>
</svg>
