<svg width="64" height="64" viewBox="0 0 64 64" fill="#000" xmlns="http://www.w3.org/2000/svg">
<path d="M50.6667 10.6667H13.3333C11.2116 10.6667 9.17678 11.5095 7.67649 13.0098C6.1762 14.5101 5.33334 16.5449 5.33334 18.6667V45.3333C5.33334 47.4551 6.1762 49.4899 7.67649 50.9902C9.17678 52.4905 11.2116 53.3333 13.3333 53.3333H50.6667C52.7884 53.3333 54.8232 52.4905 56.3235 50.9902C57.8238 49.4899 58.6667 47.4551 58.6667 45.3333V18.6667C58.6667 16.5449 57.8238 14.5101 56.3235 13.0098C54.8232 11.5095 52.7884 10.6667 50.6667 10.6667V10.6667ZM49.5733 16L33.8933 31.68C33.6454 31.9299 33.3505 32.1283 33.0255 32.2637C32.7006 32.3991 32.352 32.4688 32 32.4688C31.648 32.4688 31.2994 32.3991 30.9745 32.2637C30.6495 32.1283 30.3546 31.9299 30.1067 31.68L14.4267 16H49.5733ZM53.3333 45.3333C53.3333 46.0406 53.0524 46.7189 52.5523 47.219C52.0522 47.719 51.3739 48 50.6667 48H13.3333C12.6261 48 11.9478 47.719 11.4477 47.219C10.9476 46.7189 10.6667 46.0406 10.6667 45.3333V19.76L26.3467 35.44C27.8467 36.9381 29.88 37.7796 32 37.7796C34.12 37.7796 36.1533 36.9381 37.6533 35.44L53.3333 19.76V45.3333Z" fill="#000"/>
</svg>
